HIERARCHY
ROOT pelvis
{
  OFFSET 0 100 0
  CHANNELS 6 Xposition Yposition Zposition Zrotation Xrotation Yrotation
  JOINT pelvis_right_femur
  {
    OFFSET -10.78128 -3.44521 -0.5502486
    CHANNELS 3 Zrotation Xrotation Yrotation
    JOINT right_femur_tibia
    {
      OFFSET -0.8047443 -44.0398 -0.1307829
      CHANNELS 3 Zrotation Xrotation Yrotation
      JOINT right_tibia_foot
      {
        OFFSET 3.006224 -47.83518 -5
        CHANNELS 3 Zrotation Xrotation Yrotation
        End Site
        {
          OFFSET 0 -5 15
        }
      }
    }
  }
  JOINT pelvis_left_femur
  {
    OFFSET 10.78128 -3.44521 -0.5502486
    CHANNELS 3 Zrotation Xrotation Yrotation
    JOINT left_femur_tibia
    {
      OFFSET 0.8047443 -44.0398 -0.1307829
      CHANNELS 3 Zrotation Xrotation Yrotation
      JOINT left_tibia_foot
      {
        OFFSET -4.370144 -48.10324 -4.275266
        CHANNELS 3 Zrotation Xrotation Yrotation
        End Site
        {
          OFFSET 0 -5 15
        }
      }
    }
  }
  JOINT pelvis_spine1
  {
    OFFSET 0 6.468898 -3.129235
    CHANNELS 3 Zrotation Xrotation Yrotation
    JOINT spine1
    {
      OFFSET 0 23.15396 4.99043
      CHANNELS 3 Zrotation Xrotation Yrotation
      JOINT spine2
      {
        OFFSET 0 20.79997 -5.064912
        CHANNELS 3 Zrotation Xrotation Yrotation
        JOINT neck
        {
          OFFSET 0 14.38658 9.616178
          CHANNELS 3 Zrotation Xrotation Yrotation
          End Site
          {
            OFFSET 0 20 0
          }
        }
      }
      JOINT right_manubrium
      {
        OFFSET -5.722621 16.35077 3.967754
        CHANNELS 3 Zrotation Xrotation Yrotation
        JOINT right_clavicle
        {
          OFFSET -13.16364 1.694482 -4.693211
          CHANNELS 3 Zrotation Xrotation Yrotation
          JOINT right_humerus
          {
            OFFSET -28.5034 -0.3100689 -2.792744
            CHANNELS 3 Zrotation Xrotation Yrotation
            JOINT right_radius
            {
              OFFSET -25.15693 0.02248979 -1.271978
              CHANNELS 3 Zrotation Xrotation Yrotation
              End Site
              {
                OFFSET -15 0 0
              }
            }
          }
        }
      }
      JOINT left_manubrium
      {
        OFFSET 5.722621 16.35077 3.967754
        CHANNELS 3 Zrotation Xrotation Yrotation
        JOINT left_clavicle
        {
          OFFSET 13.16364 1.694482 -4.693211
          CHANNELS 3 Zrotation Xrotation Yrotation
          JOINT left_humerus
          {
            OFFSET 29.39168 -1.063119 -2.237045
            CHANNELS 3 Zrotation Xrotation Yrotation
            JOINT left_radius
            {
              OFFSET 24.59957 -0.9528479 0.9047498
              CHANNELS 3 Zrotation Xrotation Yrotation
              End Site
              {
                OFFSET 15 -0 -0
              }
            }
          }
        }
      }
    }
  }
}
MOTION
Frames: 7
Frame Time: 0.0416666666667
0 103.5113 0 1.805001 -1.46225 -0.1983714 2.401791 -13.17119 9.456843 -0 39.97808 -0 -5.08088 -19.5778 -2.993954 -7.781452 9.125056 -23.06047 -0 6.267094 -0 15.2633 -11.27063 29.2286 -4.53451 -4.991316 5.250218 2.569103 10.7131 -7.667685 1.233845 22.36232 6.105555 2.314452 -23.55723 9.151802 6.749916 -20.33949 12.00132 85.32306 37.01156 -17.47476 -0 0 16.08012 -7.700848 8.553378 5.073476 5.555279 -19.54556 -1.608478 -90.74649 19.68697 18.47258 0 0 -14.40324 16.06497 14.7147 -5.296029
0.3373798 103.6585 1.382582 1.241519 -0.7001244 -0.3355265 3.39255 -15.13754 10.3356 -0 41.3204 -0 -4.902486 -18.59193 -3.184153 -7.570216 9.031557 -23.01658 -0 5.83612 -0 14.67384 -12.33619 29.10488 -4.144363 -4.818802 5.197061 2.691774 10.51458 -7.832132 1.287426 21.90381 6.257046 2.304854 -24.37618 9.465622 6.733718 -20.50088 11.96904 85.21268 36.61072 -17.54258 -0 0 16.79689 -6.951854 8.527092 4.853401 5.758239 -19.50836 -0.9693643 -91.60387 20.33878 19.55953 0 0 -14.03611 15.54162 14.72593 -4.205024
0.6399236 103.1919 3.476212 1.108062 -0.1294407 -0.3856577 3.429003 -20.89035 6.670887 -0 30.05656 -0 -5.859619 -13.50121 -2.333513 -7.053959 11.55052 -21.14772 -0 5.188967 -0 9.154514 -18.45747 25.31897 -4.119893 -3.231544 4.551778 2.710562 9.443561 -7.886531 1.138441 21.76525 7.0566 3.577077 -24.1488 8.95747 6.090793 -19.18085 11.46253 85.8862 35.79041 -19.48894 -0 0 14.99271 -9.043608 8.377492 4.994789 6.636861 -20.67211 -1.894185 -91.4809 23.95205 18.70721 0 0 -17.96948 9.860462 16.13508 1.550538
0.8736844 102.4341 6.00239 0.9005215 0.2008523 -0.3493489 3.444906 -24.0973 4.98461 -0 24.62722 -0 -6.380464 -10.90095 -2.288687 -6.617128 13.17539 -20.1386 -0 5.237373 -0 5.317151 -21.5695 22.59835 -3.998691 -2.323183 4.019806 2.756761 8.712121 -7.976578 1.127228 21.73578 7.357655 4.107142 -24.01827 8.683044 5.692314 -18.274 11.11895 86.38495 35.20827 -20.65002 -0 0 13.85904 -9.780711 8.245792 5.057759 6.92373 -21.10566 -2.29989 -91.42558 26.76811 18.205 0 0 -20.10646 5.93451 16.59645 5.908241
1.075746 101.7338 8.743783 0.2437706 1.077726 -0.1770904 4.46255 -26.60437 5.393113 -0 24.3643 -0 -6.538847 -9.383084 -2.341912 -6.185905 13.52056 -19.78005 -0 5.422264 -0 3.656477 -22.71123 21.36655 -3.468867 -1.997984 3.77366 2.858739 8.364123 -8.136265 1.164481 21.30156 7.576951 4.219296 -24.77153 8.933966 5.614192 -18.12286 11.01645 86.47113 34.9415 -20.99189 -0 0 13.99919 -9.421917 8.417238 4.919694 7.141276 -21.17344 -1.846196 -92.09062 27.67643 18.96195 0 0 -20.27645 4.988017 16.59548 7.422581
1.268774 101.1404 11.60428 -0.4767748 1.977243 0.1360636 5.664407 -28.54381 6.298305 -0 25.3735 -0 -6.627585 -8.3464 -2.364276 -5.785674 13.46657 -19.66041 -0 5.652206 -0 2.598809 -23.22061 20.58876 -2.865208 -1.826846 3.622059 2.955663 8.144313 -8.281641 1.190697 20.81874 7.799328 4.265764 -25.66659 9.291908 5.652814 -18.19304 10.99397 86.40611 34.85983 -21.0777 -0 0 14.48895 -8.903648 8.670029 4.766325 7.282864 -21.10892 -1.288374 -92.99344 28.11353 20.12846 0 0 -19.89242 4.681925 16.53936 8.278469
1.463477 100.6072 14.59135 -1.055889 2.672593 0.5410817 6.595589 -30.05871 6.900212 -0 25.77806 -0 -6.780273 -7.486433 -2.318722 -5.446015 13.45388 -19.47813 -0 5.9994 -0 1.666437 -23.53671 19.80762 -2.37304 -1.676572 3.489185 3.029539 7.980623 -8.398703 1.196019 20.43961 7.987067 4.33827 -26.33513 9.539496 5.674587 -18.2084 10.97538 86.38164 34.83089 -21.18241 -0 0 14.77713 -8.618661 8.897251 4.675501 7.396824 -21.10082 -0.9147549 -93.60394 28.34667 20.9269 0 0 -19.67181 4.497256 16.47876 8.840516
